<svg xmlns="http://www.w3.org/2000/svg" xmlns:xlink="http://www.w3.org/1999/xlink" width="132" height="107" viewBox="0 0 132 107"><defs><path id="15n0a" d="M1135.168 1799.032c0-3 3-6 6-6h21.65c3 0 6 3 6 6v14.775c0 3-3 6-6 6h-21.65c-3 0-6-3-6-6z"/><path id="15n0b" d="M1125.735 1792.3c32.81 18.943 49.038 52.262 36.245 74.42-12.793 22.157-49.761 24.763-82.572 5.82-32.81-18.943-49.038-52.262-36.245-74.42s49.761-24.764 82.572-5.82z"/><path id="15n0c" d="M1116.982 1851.298a6.07 6.07 0 1 1 .001-12.139 6.07 6.07 0 0 1 0 12.14zm23.063-1.486v-9.167l-4.526-1.16a19.394 19.394 0 0 0-1.367-3.306l2.38-4.018-6.482-6.483-4.018 2.38a19.314 19.314 0 0 0-3.307-1.366l-1.16-4.526h-9.167l-1.16 4.527a19.394 19.394 0 0 0-3.306 1.366l-4.018-2.38-6.483 6.483 2.38 4.018a19.315 19.315 0 0 0-1.366 3.307l-4.525 1.159v9.168l4.526 1.159a19.394 19.394 0 0 0 1.367 3.306l-2.38 4.018 6.482 6.483 4.018-2.38a19.316 19.316 0 0 0 3.307 1.367l1.16 4.525h9.167l1.16-4.527a19.395 19.395 0 0 0 3.306-1.366l4.018 2.38 6.483-6.483-2.38-4.018a19.315 19.315 0 0 0 1.366-3.306z"/><path id="15n0d" d="M1116.982 1857.367c-6.693 0-12.138-5.445-12.138-12.138s5.445-12.138 12.138-12.138 12.138 5.445 12.138 12.138-5.445 12.138-12.138 12.138zm0-26.704c-8.032 0-14.566 6.534-14.566 14.566s6.534 14.566 14.566 14.566 14.566-6.534 14.566-14.566-6.534-14.566-14.566-14.566z"/><path id="15n0e" d="M1116.982 1850.084a4.86 4.86 0 0 1-4.855-4.855 4.86 4.86 0 0 1 4.855-4.856 4.86 4.86 0 0 1 4.855 4.856 4.86 4.86 0 0 1-4.855 4.855zm0-12.138a7.29 7.29 0 0 0-7.283 7.283 7.29 7.29 0 0 0 7.283 7.283 7.29 7.29 0 0 0 7.283-7.283 7.29 7.29 0 0 0-7.283-7.283z"/><path id="15n0f" d="M1164.321 1865.864a2.43 2.43 0 0 1-2.427-2.428 2.43 2.43 0 0 1 2.427-2.427 2.43 2.43 0 0 1 2.428 2.427 2.43 2.43 0 0 1-2.428 2.428zm-9.71-2.428a2.43 2.43 0 0 1-2.428 2.428 2.43 2.43 0 0 1-2.428-2.428 2.43 2.43 0 0 1 2.428-2.427 2.43 2.43 0 0 1 2.428 2.427zm-12.139 0a2.43 2.43 0 0 1-2.427 2.428 2.43 2.43 0 0 1-2.428-2.428 2.43 2.43 0 0 1 2.428-2.427 2.43 2.43 0 0 1 2.427 2.427zm.876-31.56h19.29l-1.618 4.856h-19.291zm22.187 26.877v-7.455h-12.138v-12.138h9.372l3.237-9.71h-12.61v-9.711h-2.427v9.71h-9.372l-3.237 9.71h12.61v12.139h-12.14v7.455c-2.087.543-3.64 2.427-3.64 4.683a4.86 4.86 0 0 0 4.855 4.856 4.86 4.86 0 0 0 4.855-4.856c0-2.256-1.553-4.14-3.641-4.683v-5.027h9.71v5.027c-2.088.543-3.641 2.427-3.641 4.683a4.86 4.86 0 0 0 4.855 4.856 4.86 4.86 0 0 0 4.855-4.856c0-2.256-1.553-4.14-3.641-4.683v-5.027h9.71v5.027c-2.088.543-3.641 2.427-3.641 4.683a4.86 4.86 0 0 0 4.855 4.856 4.86 4.86 0 0 0 4.856-4.856c0-2.256-1.554-4.14-3.642-4.683z"/><path id="15n0g" d="M1118.196 1807.6h16.994v-2.427h-19.421v16.993h2.427z"/><path id="15n0i" d="M1139.684 1798.251h24.276v2.428h-24.276z"/><path id="15n0j" d="M1139.684 1803.107h24.276v2.428h-24.276z"/><path id="15n0k" d="M1139.684 1807.962h24.276v2.428h-24.276z"/><path id="15n0l" d="M1150.607 1812.817h2.428v2.428h-2.428z"/><path id="15n0m" d="M1155.463 1812.817h2.428v2.428h-2.428z"/><path id="15n0n" d="M1160.318 1812.817h2.428v2.428h-2.428z"/><path id="15n0o" d="M1145.752 1812.817h2.428v2.428h-2.428z"/><path id="15n0p" d="M1140.896 1812.817h2.428v2.428h-2.428z"/><clipPath id="15n0h"><use fill="#fff" xlink:href="#15n0a"/></clipPath></defs><g><g transform="translate(-1038 -1779)"><g><use fill="#fbf7ff" xlink:href="#15n0b"/></g><g opacity=".6"><use fill="#fff" fill-opacity="0" stroke="#20fc8f" stroke-miterlimit="50" xlink:href="#15n0c"/></g><g><use xlink:href="#15n0d"/></g><g><use xlink:href="#15n0e"/></g><g><use xlink:href="#15n0f"/></g><g><use xlink:href="#15n0g"/></g><g opacity=".64"><use fill="#fff" fill-opacity="0" stroke="#20fc8f" stroke-miterlimit="50" stroke-width="2" clip-path="url(&quot;#15n0h&quot;)" xlink:href="#15n0a"/></g><g><use xlink:href="#15n0i"/></g><g><use xlink:href="#15n0j"/></g><g><use xlink:href="#15n0k"/></g><g><use xlink:href="#15n0l"/></g><g><use xlink:href="#15n0m"/></g><g><use xlink:href="#15n0n"/></g><g><use xlink:href="#15n0o"/></g><g><use xlink:href="#15n0p"/></g></g></g></svg>