<svg xmlns="http://www.w3.org/2000/svg" xmlns:xlink="http://www.w3.org/1999/xlink" width="149" height="107" viewBox="0 0 149 107"><defs><path id="1zbxa" d="M687.735 1792.3c32.81 18.943 49.038 52.262 36.245 74.42-12.793 22.157-49.761 24.763-82.572 5.82-32.81-18.943-49.038-52.262-36.245-74.42s49.761-24.764 82.572-5.82z"/><path id="1zbxb" d="M746.676 1809.877l-1.538-1.538 1.538-1.538 1.538 1.538z"/><path id="1zbxc" d="M715.781 1805.95l-1.538-1.538 1.538-1.537 1.538 1.537z"/><path id="1zbxd" d="M718.854 1805.953l-1.538-1.538 1.538-1.538 1.538 1.538z"/><path id="1zbxe" d="M743.602 1809.874l-1.538-1.538 1.538-1.538 1.538 1.538z"/><path id="1zbxf" d="M663.39 1831.281l-1.537-1.538 1.538-1.538 1.538 1.538z"/><path id="1zbxg" d="M660.316 1834.352l-1.538-1.538 1.538-1.538 1.538 1.538z"/><path id="1zbxh" d="M663.39 1834.352l-1.538-1.538 1.538-1.538 1.538 1.538z"/><path id="1zbxi" d="M660.317 1831.282l-1.538-1.538 1.538-1.538 1.538 1.538z"/><path id="1zbxj" d="M694.477 1809.874l-1.538-1.538 1.538-1.538 1.538 1.538z"/><path id="1zbxk" d="M663.58 1805.95l-1.538-1.538 1.538-1.538 1.538 1.538z"/><path id="1zbxl" d="M666.656 1805.95l-1.538-1.538 1.538-1.538 1.538 1.538z"/><path id="1zbxm" d="M691.401 1809.874l-1.538-1.538 1.538-1.538 1.538 1.538z"/><path id="1zbxn" d="M722.255 1831.283l-1.538-1.538 1.538-1.538 1.538 1.538z"/><path id="1zbxo" d="M719.176 1834.352l-1.538-1.538 1.538-1.538 1.538 1.538z"/><path id="1zbxp" d="M722.256 1834.349l-1.538-1.538 1.538-1.538 1.538 1.538z"/><path id="1zbxq" d="M719.176 1831.286l-1.538-1.538 1.538-1.538 1.538 1.538z"/><path id="1zbxr" d="M697.743 1839.85v-2.175h2.175v2.175z"/><path id="1zbxs" d="M697.743 1850.725v-8.7h2.175v8.7z"/><path id="1zbxt" d="M705.356 1814.837v-2.175h4.35v2.175z"/><path id="1zbxu" d="M703.05 1805.63l-1.538-1.537 3.076-3.076 1.538 1.538z"/><path id="1zbxv" d="M672.73 1814.837v-2.175h4.35v2.175z"/><path id="1zbxw" d="M679.574 1805.822l-3.262-3.263 1.537-1.538 3.263 3.263z"/><path id="1zbxx" d="M716.356 1852.9h-12.087v-11.71l3.406 4.978c.361.63.849 1.18 1.433 1.612zm-51.005 0l9.603-5.965c.496-.373.93-.82 1.289-1.326l3.013-4.413v11.704zm52.512 9.788h-19.06a5.386 5.386 0 0 0 1.116-3.263 5.444 5.444 0 0 0-5.438-5.437h-9.787c-.6 0-1.088.486-1.088 1.087v7.613h-19.032a3.806 3.806 0 1 1 0-7.613h15.77c.6 0 1.087-.486 1.087-1.087v-16.313a1.087 1.087 0 0 0-1.985-.613l-4.986 7.303a3.85 3.85 0 0 1-.732.776l-10.21 6.34a1.73 1.73 0 0 1-2.231-.535 1.706 1.706 0 0 1-.261-1.399c.13-.511.48-.938.956-1.166l8.068-5.113c.112-.071.21-.162.289-.267l5.13-6.85c.083-.109.143-.233.18-.365.753-2.764 3.201-5.724 5.645-5.724h4.597a5.438 5.438 0 0 0 10.656 0h4.208c2.861 0 6.725 3.01 7.254 5.651.018.094.05.184.092.27l3.234 6.525c.08.16.198.299.344.403l9.224 6.562a1.63 1.63 0 0 1-1.66 2.807l-8.855-6.258a3.233 3.233 0 0 1-.87-1.008l-5.438-7.953a1.088 1.088 0 0 0-1.986.614v16.313c0 .6.487 1.087 1.087 1.087h14.682a3.806 3.806 0 1 1 0 7.613zm-23.382 0h-8.7v-6.525h8.7a3.263 3.263 0 1 1 0 6.525zm-.2-32.626a3.243 3.243 0 0 1-6.124 0zm-10.335-8.686c-3.615-4.017-3.29-10.203.727-13.817a9.784 9.784 0 0 1 13.072-.016c4.025 3.596 4.372 9.774.776 13.8a10.749 10.749 0 0 0-2.903 6.544h-3.312v-10.514l3.045-4.06-1.74-1.304-2.392 3.19-2.393-3.19-1.74 1.305 3.045 4.06v10.513h-3.316a11.314 11.314 0 0 0-2.87-6.511zm39.834 28.78a3.767 3.767 0 0 0-1.67-2.492l-8.948-6.367-3.053-6.158c-.829-3.618-5.491-7.252-9.354-7.252h-2.945a8.545 8.545 0 0 1 2.173-4.92c4.494-4.832 4.22-12.393-.613-16.887a11.914 11.914 0 0 0-.174-.158c-4.922-4.407-12.484-3.99-16.891.933a11.961 11.961 0 0 0-2.99 6.784 11.844 11.844 0 0 0 3.016 9.194 9.144 9.144 0 0 1 2.29 5.054h-3.327c-3.53 0-6.643 3.585-7.686 7.122l-4.89 6.528-7.822 4.961a3.902 3.902 0 0 0-1.393 5.693 3.861 3.861 0 0 0 2.095 1.504 5.98 5.98 0 0 0 2.976 11.168h53.29a5.979 5.979 0 0 0 3.826-10.575 3.82 3.82 0 0 0 2.09-4.131z"/></defs><g><g transform="translate(-600 -1779)"><g><use fill="#fbf7ff" xlink:href="#1zbxa"/></g><g><g><g><use fill="#20fc8f" xlink:href="#1zbxb"/></g></g></g><g><g><g><use fill="#20fc8f" xlink:href="#1zbxc"/></g></g></g><g><g><g><use fill="#20fc8f" xlink:href="#1zbxd"/></g></g></g><g><g><g><use fill="#20fc8f" xlink:href="#1zbxe"/></g></g></g><g><g><g><use fill="#8514e8" xlink:href="#1zbxf"/></g></g></g><g><g><g><use fill="#8514e8" xlink:href="#1zbxg"/></g></g></g><g><g><g><use fill="#8514e8" xlink:href="#1zbxh"/></g></g></g><g><g><g><use fill="#8514e8" xlink:href="#1zbxi"/></g></g></g><g><g><g><use fill="#20fc8f" xlink:href="#1zbxj"/></g></g></g><g><g><g><use fill="#20fc8f" xlink:href="#1zbxk"/></g></g></g><g><g><g><use fill="#20fc8f" xlink:href="#1zbxl"/></g></g></g><g><g><g><use fill="#20fc8f" xlink:href="#1zbxm"/></g></g></g><g><g><g><use fill="#8514e8" xlink:href="#1zbxn"/></g></g></g><g><g><g><use fill="#8514e8" xlink:href="#1zbxo"/></g></g></g><g><g><g><use fill="#8514e8" xlink:href="#1zbxp"/></g></g></g><g><g><g><use fill="#8514e8" xlink:href="#1zbxq"/></g></g></g><g><g><g><use xlink:href="#1zbxr"/></g></g></g><g><g><g><use xlink:href="#1zbxs"/></g></g></g><g><g><g><use xlink:href="#1zbxt"/></g></g></g><g><g><g><use xlink:href="#1zbxu"/></g></g></g><g><g><g><use xlink:href="#1zbxv"/></g></g></g><g><g><g><use xlink:href="#1zbxw"/></g></g></g><g><g><g><use xlink:href="#1zbxx"/></g></g></g></g></g></svg>