<svg xmlns="http://www.w3.org/2000/svg" xmlns:xlink="http://www.w3.org/1999/xlink" width="44" height="53" viewBox="0 0 44 53"><defs><path id="law4a" d="M1524.655 7143.793l4.569 40.205h27.412l4.57-40.205z"/><path id="law4b" d="M1521 7136.482h43.86v7.31H1521z"/><path id="law4c" d="M1524.655 7136.482h36.55l-.913-5.482h-34.723z"/><path id="law4d" d="M1562.119 7152.017l-2.741 20.102h-32.896l-2.74-20.102z"/><path id="law4e" d="M1560.292 7131h-7.31l-5.483 5.482h13.706z"/><path id="law4f" d="M1564.86 7136.482h-22.843l-7.31 7.31h30.153z"/><path id="law4g" d="M1557.779 7173.947l.207-1.828h-30.112l.208 1.828z"/><path id="law4h" d="M1560.998 7145.62l.207-1.827h-36.55l.207 1.827z"/><path id="law4i" d="M1562.119 7152.017h-5.643c-5.322 9.137-13.546 15.533-22.683 20.102h25.585z"/></defs><g><g transform="translate(-1521 -7131)"><g><use fill="#dadddf" xlink:href="#law4a"/></g><g><use fill="#875339" xlink:href="#law4b"/></g><g><use fill="#75462e" xlink:href="#law4c"/></g><g><use fill="#fdb62f" xlink:href="#law4d"/></g><g><use fill="#6e422b" xlink:href="#law4e"/></g><g><use fill="#7d4a32" xlink:href="#law4f"/></g><g><use fill="#c7cacc" xlink:href="#law4g"/></g><g><use fill="#c7cacc" xlink:href="#law4h"/></g><g><use fill="#ffa230" xlink:href="#law4i"/></g></g></g></svg>