<svg xmlns="http://www.w3.org/2000/svg" xmlns:xlink="http://www.w3.org/1999/xlink" width="84" height="104" viewBox="0 0 84 104"><defs><path id="1c75a" d="M1339.905 4514.863c0-4.458 4.868-8.072 10.873-8.072 6.004 0 10.872 3.614 10.872 8.072 0 4.458-4.868 8.072-10.872 8.072-6.005 0-10.873-3.614-10.873-8.072z"/><path id="1c75b" d="M1360.205 4461.3a5.307 5.307 0 1 1 10.615 0 5.307 5.307 0 0 1-10.615 0z"/><path id="1c75c" d="M1318.49 4502.837c0-16.309 16.309-32.617 32.618-32.617s32.617 16.308 32.617 32.617v7.908c0 16.308-16.308 32.617-32.617 32.617-16.309 0-32.618-16.309-32.618-32.617z"/><path id="1c75d" d="M1327.715 4506.79c0-12.918 10.473-23.392 23.392-23.392 12.92 0 23.393 10.474 23.393 23.393 0 12.92-10.474 23.392-23.393 23.392s-23.392-10.473-23.392-23.392z"/><path id="1c75e" d="M1342.505 4501.91s-2.35-4.064-4.282 0"/><path id="1c75f" d="M1362.933 4501.91s-2.35-4.064-4.282 0"/><path id="1c75h" d="M1337.445 4515.735c-1.06-3.955 4.493-8.879 12.402-10.998 7.91-2.12 15.18-.632 16.24 3.323 1.06 3.955-4.493 8.879-12.402 10.998-7.91 2.12-15.18.631-16.24-3.323z"/><path id="1c75i" d="M1388.637 4473.376l1.969 1.433c.312.232.736-.08.616-.448l-.752-2.313 1.945-1.385c.32-.224.16-.728-.232-.728h-2.385l-.777-2.417a.4.4 0 0 0-.76 0l-.784 2.417h-2.385c-.392 0-.552.504-.232.728l1.945 1.385-.753 2.313c-.12.368.304.672.617.448z"/><path id="1c75j" d="M1350.468 4451.166l2.784 2.026c.44.328 1.04-.113.87-.634l-1.063-3.27 2.75-1.958c.453-.317.226-1.03-.328-1.03h-3.372l-1.098-3.417a.565.565 0 0 0-1.075 0l-1.11 3.417h-3.371c-.555 0-.781.713-.328 1.03l2.75 1.958-1.064 3.27c-.17.52.43.95.871.634z"/><path id="1c75l" d="M1392.049 4458.025a4.79 4.79 0 1 1 9.582 0 4.79 4.79 0 0 1-9.582 0z"/><path id="1c75m" d="M1379.673 4440.685v5.752"/><path id="1c75n" d="M1382.549 4443.562h-5.754"/><clipPath id="1c75g"><use fill="#fff" xlink:href="#1c75a"/></clipPath><clipPath id="1c75k"><use fill="#fff" xlink:href="#1c75b"/></clipPath></defs><g><g transform="translate(-1318 -4440)"><use fill="#20fc8f" xlink:href="#1c75c"/></g><g transform="translate(-1318 -4440)"><use fill="#eef1f8" xlink:href="#1c75d"/></g><g transform="translate(-1318 -4440)"><use fill="#fff" fill-opacity="0" stroke="#707070" stroke-linecap="round" stroke-miterlimit="50" stroke-width="2" xlink:href="#1c75e"/></g><g transform="translate(-1318 -4440)"><use fill="#fff" fill-opacity="0" stroke="#707070" stroke-linecap="round" stroke-miterlimit="50" stroke-width="2" xlink:href="#1c75f"/></g><g transform="translate(-1318 -4440)"><use fill="#fff" fill-opacity="0" stroke="#707070" stroke-miterlimit="50" stroke-width="4" clip-path="url(&quot;#1c75g&quot;)" xlink:href="#1c75a"/></g><g transform="translate(-1318 -4440)"><use fill="#eef1f8" xlink:href="#1c75h"/></g><g transform="translate(-1318 -4440)"><g/><g><use fill="#6320ee" xlink:href="#1c75i"/></g></g><g transform="translate(-1318 -4440)"><g/><g><use fill="#6320ee" xlink:href="#1c75j"/></g></g><g transform="translate(-1318 -4440)"><use fill="#fff" fill-opacity="0" stroke="#6320ee" stroke-miterlimit="50" stroke-width="2" clip-path="url(&quot;#1c75k&quot;)" xlink:href="#1c75b"/></g><g transform="translate(-1318 -4440)"><use fill="#6320ee" xlink:href="#1c75l"/></g><g transform="translate(-1318 -4440)"><use fill="#fff" fill-opacity="0" stroke="#6320ee" stroke-linecap="round" stroke-miterlimit="50" xlink:href="#1c75m"/></g><g transform="translate(-1318 -4440)"><use fill="#fff" fill-opacity="0" stroke="#6320ee" stroke-linecap="round" stroke-miterlimit="50" xlink:href="#1c75n"/></g></g></svg>