<svg xmlns="http://www.w3.org/2000/svg" xmlns:xlink="http://www.w3.org/1999/xlink" width="47" height="91" viewBox="0 0 47 91"><defs><path id="wcyya" d="M1312.77 5423.746c0-3.181 3.473-5.76 7.757-5.76 4.285 0 7.758 2.579 7.758 5.76 0 3.18-3.473 5.76-7.758 5.76-4.284 0-7.757-2.58-7.757-5.76z"/><path id="wcyyb" d="M1297.49 5415.166c0-11.636 11.637-23.273 23.273-23.273 11.637 0 23.273 11.637 23.273 23.273v5.641c0 11.637-11.636 23.273-23.273 23.273-11.636 0-23.273-11.636-23.273-23.273z"/><path id="wcyyc" d="M1304.072 5417.986c0-9.218 7.473-16.69 16.691-16.69s16.69 7.472 16.69 16.69-7.472 16.69-16.69 16.69-16.69-7.472-16.69-16.69z"/><path id="wcyyd" d="M1314.625 5414.503s-1.677-2.898-3.055 0"/><path id="wcyye" d="M1329.2 5414.503s-1.677-2.898-3.055 0"/><path id="wcyyg" d="M1311.014 5424.368c-.756-2.821 3.206-6.335 8.85-7.847 5.643-1.512 10.83-.45 11.587 2.371.756 2.822-3.206 6.335-8.85 7.847-5.643 1.513-10.83.451-11.587-2.37z"/><path id="wcyyh" d="M1311.948 5440.831h16.598l-4.714 9.308h-7.454z"/><path id="wcyyi" d="M1315.77 5447.979l-7.149 23.573 9.43 9.735 7.908-8.973-1.824-24.335"/><clipPath id="wcyyf"><use fill="#fff" xlink:href="#wcyya"/></clipPath></defs><g><g transform="translate(-1297 -5392)"><use fill="#20fc8f" xlink:href="#wcyyb"/></g><g transform="translate(-1297 -5392)"><use fill="#eef1f8" xlink:href="#wcyyc"/></g><g transform="translate(-1297 -5392)"><use fill="#fff" fill-opacity="0" stroke="#707070" stroke-linecap="round" stroke-miterlimit="50" stroke-width="2" xlink:href="#wcyyd"/></g><g transform="translate(-1297 -5392)"><use fill="#fff" fill-opacity="0" stroke="#707070" stroke-linecap="round" stroke-miterlimit="50" stroke-width="2" xlink:href="#wcyye"/></g><g transform="translate(-1297 -5392)"><use fill="#fff" fill-opacity="0" stroke="#707070" stroke-miterlimit="50" stroke-width="4" clip-path="url(&quot;#wcyyf&quot;)" xlink:href="#wcyya"/></g><g transform="translate(-1297 -5392)"><use fill="#eef1f8" xlink:href="#wcyyg"/></g><g transform="translate(-1297 -5392)"><use fill="#fff" fill-opacity="0" stroke="#20fc8f" stroke-miterlimit="50" stroke-width="2" xlink:href="#wcyyh"/></g><g transform="translate(-1297 -5392)"><use fill="#fff" fill-opacity="0" stroke="#20fc8f" stroke-miterlimit="50" stroke-width="2" xlink:href="#wcyyi"/></g></g></svg>