<svg xmlns="http://www.w3.org/2000/svg" xmlns:xlink="http://www.w3.org/1999/xlink" width="116" height="116" viewBox="0 0 116 116"><defs><path id="bvq6a" d="M389.725 3674.494v-23.931l-16.921 16.92c-3.849 3.85-10.088 3.85-13.939 0-3.847-3.848-3.847-10.09 0-13.938l16.921-16.92h-23.93c-5.443 0-9.856-4.414-9.856-9.857 0-5.442 4.413-9.855 9.856-9.855h23.928l-16.92-16.92c-3.85-3.851-3.85-10.09 0-13.941a9.86 9.86 0 0 1 13.94 0l16.92 16.92v-23.929c0-5.444 4.414-9.855 9.857-9.855 5.444 0 9.857 4.411 9.857 9.855v23.93l16.92-16.921c3.849-3.848 10.09-3.848 13.939 0 3.85 3.848 3.85 10.09 0 13.938l-16.923 16.923h23.932c5.443 0 9.856 4.413 9.856 9.855 0 5.443-4.413 9.857-9.856 9.857h-23.93l16.92 16.92c3.85 3.85 3.85 10.09 0 13.94a9.86 9.86 0 0 1-13.94 0l-16.918-16.918v23.927c0 5.442-4.413 9.855-9.857 9.855-5.443 0-9.856-4.413-9.856-9.855z"/><path id="bvq6b" d="M385 3627a5 5 0 1 1 10 0 5 5 0 0 1-10 0z"/><path id="bvq6c" d="M405 3627a5 5 0 1 1 10 0 5 5 0 0 1-10 0z"/><path id="bvq6g" d="M379.5 3626.5h-23"/><path id="bvq6h" d="M446.5 3627.5h-23"/><clipPath id="bvq6d"><use fill="#fff" xlink:href="#bvq6a"/></clipPath><clipPath id="bvq6e"><use fill="#fff" xlink:href="#bvq6b"/></clipPath><clipPath id="bvq6f"><use fill="#fff" xlink:href="#bvq6c"/></clipPath></defs><g><g transform="translate(-342 -3569)"><g><use fill="#fff" fill-opacity="0" stroke="#20fc8f" stroke-linecap="round" stroke-linejoin="round" stroke-miterlimit="50" stroke-width="8" clip-path="url(&quot;#bvq6d&quot;)" xlink:href="#bvq6a"/></g><g><use fill="#fff" xlink:href="#bvq6b"/><use fill="#fff" fill-opacity="0" stroke="#8514e8" stroke-miterlimit="50" stroke-width="4" clip-path="url(&quot;#bvq6e&quot;)" xlink:href="#bvq6b"/></g><g><use fill="#fff" xlink:href="#bvq6c"/><use fill="#fff" fill-opacity="0" stroke="#20fc8f" stroke-miterlimit="50" stroke-width="4" clip-path="url(&quot;#bvq6f&quot;)" xlink:href="#bvq6c"/></g><g><use fill="#fff" fill-opacity="0" stroke="#dcdcdc" stroke-linecap="round" stroke-miterlimit="50" xlink:href="#bvq6g"/></g><g><use fill="#fff" fill-opacity="0" stroke="#dcdcdc" stroke-linecap="round" stroke-miterlimit="50" xlink:href="#bvq6h"/></g></g></g></svg>