<svg xmlns="http://www.w3.org/2000/svg" xmlns:xlink="http://www.w3.org/1999/xlink" width="137" height="135" viewBox="0 0 137 135"><defs><path id="q2oga" d="M266 557.513c0-8.5 8.5-17 17-17h74.465c8.5 0 17 8.5 17 17v71.665c0 8.5-8.5 17-17 17H283c-8.5 0-17-8.5-17-17z"/><path id="q2ogb" d="M346.923 546.717c0-11.343 9.196-20.539 20.539-20.539 11.343 0 20.538 9.196 20.538 20.539 0 11.343-9.195 20.538-20.538 20.538s-20.539-9.195-20.539-20.538z"/><path id="q2ogf" d="M280.558 559.059a2.85 2.85 0 1 1 5.698 0 2.85 2.85 0 0 1-5.698 0z"/><path id="q2ogg" d="M288.51 559.059a2.85 2.85 0 1 1 5.7 0 2.85 2.85 0 0 1-5.7 0z"/><path id="q2ogh" d="M296.464 559.059a2.85 2.85 0 1 1 5.698 0 2.85 2.85 0 0 1-5.698 0z"/><path id="q2ogi" d="M323.038 577.38H356.7"/><path id="q2ogj" d="M323.038 588.69h18.7"/><path id="q2ogk" d="M349.22 588.69h13.09"/><path id="q2ogl" d="M323.038 598.114h11.22"/><path id="q2ogm" d="M352.96 609.423h3.74"/><path id="q2ogn" d="M352.96 628.413h3.74"/><path id="q2ogo" d="M341.739 598.114h20.57"/><path id="q2ogp" d="M323.038 609.423h20.57"/><path id="q2ogq" d="M339.869 618.848h20.57"/><path id="q2ogr" d="M323.038 628.413h20.57"/><path id="q2ogs" d="M295.618 599.45v29.221"/><path id="q2ogt" d="M295.04 604.403c.176-.177.53-.177.707 0l4.65 4.65c.176.177.176.53 0 .707l-4.65 4.65c-.177.177-.53.177-.707 0l-4.65-4.65c-.177-.177-.177-.53 0-.707z"/><path id="q2ogu" d="M288.441 619.204c0-.5.5-1 1-1h13.152c.5 0 1 .5 1 1v3.412c0 .5-.5 1-1 1H289.44c-.5 0-1-.5-1-1z"/><path id="q2ogv" d="M290.036 629.753c0-.811.812-1.623 1.623-1.623h7.576c.812 0 1.624.812 1.624 1.623 0 .812-.812 1.624-1.624 1.624h-7.576c-.811 0-1.623-.812-1.623-1.624z"/><path id="q2ogw" d="M288.441 596.197c0-1 1-2 2-2h11.152c1 0 2 1 2 2v1.412c0 1-1 2-2 2H290.44c-1 0-2-1-2-2z"/><path id="q2ogx" d="M306.797 561.968h52.478"/><path id="q2ogA" d="M372.34 546.46l-7.702-5.776v11.553zm-15.404.128c0-2.695 1.027-5.134 3.08-7.188 1.926-2.054 4.365-3.08 7.189-3.08 2.696 0 5.134 1.026 7.188 3.08 2.054 1.926 3.081 4.364 3.081 7.188 0 2.696-1.027 5.135-3.08 7.189-1.926 2.054-4.365 3.08-7.19 3.08-2.695 0-5.134-1.026-7.188-3.08-2.053-2.054-3.08-4.493-3.08-7.189zm-2.44 0c0 3.595 1.156 6.547 3.723 9.114 2.568 2.44 5.52 3.723 9.114 3.723 3.594 0 6.547-1.155 9.114-3.723 2.44-2.567 3.723-5.52 3.723-9.114 0-3.594-1.156-6.546-3.723-9.113-2.567-2.44-5.648-3.723-9.114-3.723-3.594 0-6.546 1.155-9.114 3.723-2.567 2.438-3.722 5.52-3.722 9.113z"/><mask id="q2ogd" width="2" height="2" x="-1" y="-1"><path fill="#fff" d="M266 540h109v107H266z"/><use xlink:href="#q2oga"/></mask><filter id="q2ogc" width="153" height="154" x="244" y="518" filterUnits="userSpaceOnUse"><feOffset dy="3" in="SourceGraphic" result="FeOffset1025Out"/><feGaussianBlur in="FeOffset1025Out" result="FeGaussianBlur1026Out" stdDeviation="4.8 4.8"/></filter><clipPath id="q2oge"><use fill="#fff" xlink:href="#q2oga"/></clipPath><mask id="q2ogz" width="2" height="2" x="-1" y="-1"><path fill="#fff" d="M346 526h42v42h-42z"/><use xlink:href="#q2ogb"/></mask><filter id="q2ogy" width="74" height="77" x="330" y="510" filterUnits="userSpaceOnUse"><feOffset dy="3" in="SourceGraphic" result="FeOffset1144Out"/><feGaussianBlur in="FeOffset1144Out" result="FeGaussianBlur1145Out" stdDeviation="2.4 2.4"/></filter></defs><g><g transform="translate(-256 -524)"><g><g filter="url(#q2ogc)"><use fill="none" stroke-opacity=".28" stroke-width="0" mask="url(&quot;#q2ogd&quot;)" xlink:href="#q2oga"/><use fill="#6320ee" fill-opacity=".28" xlink:href="#q2oga"/></g><use fill="#404d6f" xlink:href="#q2oga"/><use fill="#fff" fill-opacity="0" stroke="#fff" stroke-miterlimit="50" stroke-width="8" clip-path="url(&quot;#q2oge&quot;)" xlink:href="#q2oga"/></g><g><use fill="#eef1f8" xlink:href="#q2ogf"/></g><g><use fill="#eef1f8" xlink:href="#q2ogg"/></g><g><use fill="#eef1f8" xlink:href="#q2ogh"/></g><g><g><text dominant-baseline="text-before-edge" style="font-kerning:normal" fill="#eef1f8" font-family="'Rajdhani','SegoeUI'" font-size="13" letter-spacing=".16" transform="translate(281 565)"><tspan font-family="Segoe UI" font-style="none" font-weight="400">&lt;/&gt;</tspan></text></g></g><g><use fill="#fff" fill-opacity="0" stroke="#eef1f8" stroke-linecap="round" stroke-miterlimit="50" stroke-width="2" xlink:href="#q2ogi"/></g><g><use fill="#fff" fill-opacity="0" stroke="#eef1f8" stroke-linecap="round" stroke-miterlimit="50" stroke-width="2" xlink:href="#q2ogj"/></g><g><use fill="#fff" fill-opacity="0" stroke="#eef1f8" stroke-linecap="round" stroke-miterlimit="50" stroke-width="2" xlink:href="#q2ogk"/></g><g><use fill="#fff" fill-opacity="0" stroke="#eef1f8" stroke-linecap="round" stroke-miterlimit="50" stroke-width="2" xlink:href="#q2ogl"/></g><g><use fill="#fff" fill-opacity="0" stroke="#eef1f8" stroke-linecap="round" stroke-miterlimit="50" stroke-width="2" xlink:href="#q2ogm"/></g><g><use fill="#fff" fill-opacity="0" stroke="#eef1f8" stroke-linecap="round" stroke-miterlimit="50" stroke-width="2" xlink:href="#q2ogn"/></g><g><use fill="#fff" fill-opacity="0" stroke="#eef1f8" stroke-linecap="round" stroke-miterlimit="50" stroke-width="2" xlink:href="#q2ogo"/></g><g><use fill="#fff" fill-opacity="0" stroke="#eef1f8" stroke-linecap="round" stroke-miterlimit="50" stroke-width="2" xlink:href="#q2ogp"/></g><g><use fill="#fff" fill-opacity="0" stroke="#eef1f8" stroke-linecap="round" stroke-miterlimit="50" stroke-width="2" xlink:href="#q2ogq"/></g><g><use fill="#fff" fill-opacity="0" stroke="#eef1f8" stroke-linecap="round" stroke-miterlimit="50" stroke-width="2" xlink:href="#q2ogr"/></g><g><use fill="#fff" fill-opacity="0" stroke="#eef1f8" stroke-miterlimit="50" stroke-width=".5" xlink:href="#q2ogs"/></g><g><use fill="#eef1f8" xlink:href="#q2ogt"/></g><g><use fill="#eef1f8" xlink:href="#q2ogu"/></g><g><use fill="#eef1f8" xlink:href="#q2ogv"/></g><g><use fill="#eef1f8" xlink:href="#q2ogw"/></g><g><use fill="#fff" fill-opacity="0" stroke="#eef1f8" stroke-miterlimit="50" stroke-width=".2" xlink:href="#q2ogx"/></g><g><g filter="url(#q2ogy)"><use fill="none" stroke-opacity=".16" stroke-width="0" mask="url(&quot;#q2ogz&quot;)" xlink:href="#q2ogb"/><use fill-opacity=".16" xlink:href="#q2ogb"/></g><use fill="#fff" xlink:href="#q2ogb"/></g><g><use xlink:href="#q2ogA"/></g></g></g></svg>