<svg xmlns="http://www.w3.org/2000/svg" xmlns:xlink="http://www.w3.org/1999/xlink" width="137" height="135" viewBox="0 0 137 135"><defs><path id="y9cca" d="M548 557.513c0-8.5 8.5-17 17-17h74.465c8.5 0 17 8.5 17 17v71.665c0 8.5-8.5 17-17 17H565c-8.5 0-17-8.5-17-17z"/><path id="y9ccb" d="M628.923 546.717c0-11.343 9.196-20.539 20.539-20.539 11.343 0 20.538 9.196 20.538 20.539 0 11.343-9.195 20.538-20.538 20.538s-20.539-9.195-20.539-20.538z"/><path id="y9ccf" d="M563.842 553.323a1.003 1.003 0 1 1 2.005 0 1.003 1.003 0 0 1-2.005 0z"/><path id="y9ccg" d="M566.64 553.323a1.003 1.003 0 1 1 2.006 0 1.003 1.003 0 0 1-2.006 0z"/><path id="y9cch" d="M569.439 553.323a1.003 1.003 0 1 1 2.005 0 1.003 1.003 0 0 1-2.005 0z"/><path id="y9cci" d="M584.5 567.03h33.661"/><path id="y9ccj" d="M584.5 574.458h18.7"/><path id="y9cck" d="M619.666 609.39h13.091"/><path id="y9ccl" d="M571.663 609.758h11.22"/><path id="y9ccm" d="M613.137 574.491h3.74"/><path id="y9ccn" d="M628.228 595.928h7.904"/><path id="y9cco" d="M599.35 595.527h20.57"/><path id="y9ccp" d="M592.201 609.423h20.571"/><path id="y9ccq" d="M571.806 620.142h20.572"/><path id="y9ccr" d="M602.47 620.51h20.572"/><path id="y9ccs" d="M573.075 554.347h56.437"/><path id="y9ccv" d="M661.741 540.004a14.116 14.116 0 0 0-5.16-5.16c-2.171-1.268-4.543-1.901-7.115-1.901-2.573 0-4.945.634-7.117 1.901a14.114 14.114 0 0 0-5.16 5.16c-1.267 2.172-1.9 4.544-1.9 7.116 0 3.089.9 5.867 2.704 8.334 1.803 2.468 4.132 4.175 6.987 5.123.332.062.578.018.738-.13a.722.722 0 0 0 .24-.553l-.01-.997a164.75 164.75 0 0 1-.009-1.642l-.424.073c-.271.05-.613.07-1.025.065a7.805 7.805 0 0 1-1.283-.13 2.867 2.867 0 0 1-1.237-.553 2.342 2.342 0 0 1-.812-1.135l-.184-.425a4.612 4.612 0 0 0-.582-.941c-.264-.345-.532-.578-.803-.701l-.129-.093a1.356 1.356 0 0 1-.24-.222 1.013 1.013 0 0 1-.166-.258c-.037-.086-.006-.157.092-.213.099-.055.277-.082.536-.082l.369.055c.246.05.55.197.914.443.363.246.66.566.895.96.283.504.624.889 1.024 1.153.4.265.803.397 1.21.397.405 0 .756-.03 1.052-.092.295-.061.572-.154.83-.277.111-.825.413-1.459.905-1.901a12.64 12.64 0 0 1-1.892-.333 7.533 7.533 0 0 1-1.736-.72 4.97 4.97 0 0 1-1.486-1.237c-.393-.492-.717-1.138-.969-1.938s-.378-1.723-.378-2.769c0-1.49.486-2.757 1.458-3.803-.455-1.12-.412-2.375.13-3.766.356-.11.886-.027 1.587.25.702.276 1.215.514 1.542.71.326.197.587.364.784.499 1.145-.32 2.326-.48 3.544-.48 1.219 0 2.4.16 3.545.48l.702-.443a9.934 9.934 0 0 1 1.698-.812c.652-.246 1.15-.314 1.495-.203.554 1.39.603 2.646.148 3.765.972 1.046 1.458 2.314 1.458 3.803 0 1.046-.126 1.972-.378 2.778-.252.807-.578 1.452-.978 1.939a5.16 5.16 0 0 1-1.496 1.227 7.548 7.548 0 0 1-1.735.72c-.56.148-1.19.259-1.892.333.64.553.96 1.427.96 2.621v3.895c0 .221.077.406.23.553.154.148.397.191.73.13 2.855-.948 5.184-2.656 6.987-5.123 1.803-2.468 2.704-5.246 2.704-8.335 0-2.571-.635-4.943-1.902-7.115z"/><path id="y9ccw" d="M563.404 570.798a7.06 7.06 0 1 1 14.12 0 7.06 7.06 0 0 1-14.12 0z"/><mask id="y9ccd" width="2" height="2" x="-1" y="-1"><path fill="#fff" d="M548 540h109v107H548z"/><use xlink:href="#y9cca"/></mask><filter id="y9ccc" width="153" height="154" x="526" y="518" filterUnits="userSpaceOnUse"><feOffset dy="3" in="SourceGraphic" result="FeOffset1171Out"/><feGaussianBlur in="FeOffset1171Out" result="FeGaussianBlur1172Out" stdDeviation="4.8 4.8"/></filter><clipPath id="y9cce"><use fill="#fff" xlink:href="#y9cca"/></clipPath><mask id="y9ccu" width="2" height="2" x="-1" y="-1"><path fill="#fff" d="M628 526h42v42h-42z"/><use xlink:href="#y9ccb"/></mask><filter id="y9cct" width="74" height="77" x="612" y="510" filterUnits="userSpaceOnUse"><feOffset dy="3" in="SourceGraphic" result="FeOffset1265Out"/><feGaussianBlur in="FeOffset1265Out" result="FeGaussianBlur1266Out" stdDeviation="2.4 2.4"/></filter></defs><g><g transform="translate(-538 -524)"><g><g filter="url(#y9ccc)"><use fill="none" stroke-opacity=".28" stroke-width="0" mask="url(&quot;#y9ccd&quot;)" xlink:href="#y9cca"/><use fill="#6320ee" fill-opacity=".28" xlink:href="#y9cca"/></g><use fill="#404d6f" xlink:href="#y9cca"/><use fill="#fff" fill-opacity="0" stroke="#fff" stroke-miterlimit="50" stroke-width="8" clip-path="url(&quot;#y9cce&quot;)" xlink:href="#y9cca"/></g><g><use fill="#eef1f8" xlink:href="#y9ccf"/></g><g><use fill="#eef1f8" xlink:href="#y9ccg"/></g><g><use fill="#eef1f8" xlink:href="#y9cch"/></g><g><g><text dominant-baseline="text-before-edge" style="font-kerning:normal" fill="#eef1f8" font-family="'Rajdhani','SegoeUI'" font-size="13" letter-spacing=".16" transform="translate(569 584)"><tspan font-family="Segoe UI" font-style="none" font-weight="400">&lt;/&gt;</tspan></text></g></g><g><use fill="#fff" fill-opacity="0" stroke="#eef1f8" stroke-linecap="round" stroke-miterlimit="50" stroke-width="2" xlink:href="#y9cci"/></g><g><use fill="#fff" fill-opacity="0" stroke="#eef1f8" stroke-linecap="round" stroke-miterlimit="50" stroke-width="2" xlink:href="#y9ccj"/></g><g><use fill="#fff" fill-opacity="0" stroke="#eef1f8" stroke-linecap="round" stroke-miterlimit="50" stroke-width="2" xlink:href="#y9cck"/></g><g><use fill="#fff" fill-opacity="0" stroke="#eef1f8" stroke-linecap="round" stroke-miterlimit="50" stroke-width="2" xlink:href="#y9ccl"/></g><g><use fill="#fff" fill-opacity="0" stroke="#eef1f8" stroke-linecap="round" stroke-miterlimit="50" stroke-width="2" xlink:href="#y9ccm"/></g><g><use fill="#fff" fill-opacity="0" stroke="#eef1f8" stroke-linecap="round" stroke-miterlimit="50" stroke-width="2" xlink:href="#y9ccn"/></g><g><use fill="#fff" fill-opacity="0" stroke="#eef1f8" stroke-linecap="round" stroke-miterlimit="50" stroke-width="2" xlink:href="#y9cco"/></g><g><use fill="#fff" fill-opacity="0" stroke="#eef1f8" stroke-linecap="round" stroke-miterlimit="50" stroke-width="2" xlink:href="#y9ccp"/></g><g><use fill="#fff" fill-opacity="0" stroke="#eef1f8" stroke-linecap="round" stroke-miterlimit="50" stroke-width="2" xlink:href="#y9ccq"/></g><g><use fill="#fff" fill-opacity="0" stroke="#eef1f8" stroke-linecap="round" stroke-miterlimit="50" stroke-width="2" xlink:href="#y9ccr"/></g><g><use fill="#fff" fill-opacity="0" stroke="#eef1f8" stroke-miterlimit="50" stroke-width=".2" xlink:href="#y9ccs"/></g><g><g filter="url(#y9cct)"><use fill="none" stroke-opacity=".16" stroke-width="0" mask="url(&quot;#y9ccu&quot;)" xlink:href="#y9ccb"/><use fill-opacity=".16" xlink:href="#y9ccb"/></g><use fill="#fff" xlink:href="#y9ccb"/></g><g><g><use xlink:href="#y9ccv"/></g></g><g><use fill="#fff" xlink:href="#y9ccw"/></g></g></g></svg>