<svg xmlns="http://www.w3.org/2000/svg" xmlns:xlink="http://www.w3.org/1999/xlink" width="137" height="135" viewBox="0 0 137 135"><defs><path id="csnsa" d="M830 557.337c0-8.5 8.5-17 17-17h74.465c8.5 0 17 8.5 17 17v71.666c0 8.5-8.5 17-17 17H847c-8.5 0-17-8.5-17-17z"/><path id="csnsb" d="M910.923 546.542c0-11.343 9.196-20.539 20.539-20.539 11.343 0 20.538 9.196 20.538 20.539 0 11.343-9.195 20.538-20.538 20.538s-20.539-9.195-20.539-20.538z"/><path id="csnsf" d="M845.842 553.147a1.003 1.003 0 1 1 2.005 0 1.003 1.003 0 0 1-2.005 0z"/><path id="csnsg" d="M848.64 553.147a1.003 1.003 0 1 1 2.005 0 1.003 1.003 0 0 1-2.005 0z"/><path id="csnsh" d="M851.439 553.147a1.003 1.003 0 1 1 2.005 0 1.003 1.003 0 0 1-2.005 0z"/><path id="csnsi" d="M866.5 566.855h33.662"/><path id="csnsj" d="M866.5 590.144h33.662"/><path id="csnsk" d="M866.5 612.138h33.662"/><path id="csnsl" d="M866.5 574.283h18.701"/><path id="csnsm" d="M866.5 597.571h18.701"/><path id="csnsn" d="M866.5 619.566h18.701"/><path id="csnso" d="M895.137 574.316h3.74"/><path id="csnsp" d="M895.137 597.604h3.74"/><path id="csnsq" d="M895.137 619.599h3.74"/><path id="csnsr" d="M855.076 554.172h56.437"/><path id="csnsu" d="M857.413 567.113a6.408 6.408 0 0 0-2.342-2.343 6.295 6.295 0 0 0-3.231-.863 6.296 6.296 0 0 0-3.23.863 6.408 6.408 0 0 0-2.343 2.343 6.296 6.296 0 0 0-.863 3.23c0 1.403.409 2.664 1.227 3.784a6.304 6.304 0 0 0 3.172 2.326c.151.028.263.008.336-.059a.328.328 0 0 0 .109-.251l-.005-.453a74.751 74.751 0 0 1-.004-.746l-.193.034a2.458 2.458 0 0 1-.465.03 3.543 3.543 0 0 1-.582-.06 1.301 1.301 0 0 1-.562-.25 1.063 1.063 0 0 1-.368-.516l-.084-.193a2.094 2.094 0 0 0-.264-.427 1.011 1.011 0 0 0-.365-.319l-.058-.042a.615.615 0 0 1-.11-.1.46.46 0 0 1-.075-.118c-.017-.039-.003-.071.042-.096a.544.544 0 0 1 .243-.038l.168.025c.111.023.25.09.415.201.164.112.3.257.406.436.129.23.283.404.465.524.182.12.365.18.549.18.184 0 .344-.014.478-.042.134-.028.26-.07.377-.126.05-.374.187-.662.41-.863a5.737 5.737 0 0 1-.859-.15 3.42 3.42 0 0 1-.787-.328 2.256 2.256 0 0 1-.675-.561c-.179-.224-.325-.517-.44-.88a4.185 4.185 0 0 1-.172-1.257c0-.676.221-1.252.662-1.727-.206-.508-.187-1.078.06-1.71.161-.05.401-.012.72.114.318.126.551.233.7.323.148.089.266.165.356.226a5.951 5.951 0 0 1 1.609-.218c.553 0 1.09.073 1.61.218l.318-.201a4.51 4.51 0 0 1 .77-.369c.297-.112.523-.142.68-.092.25.631.273 1.201.066 1.71.442.474.663 1.05.663 1.726 0 .475-.058.895-.172 1.261-.115.366-.263.66-.444.88-.182.22-.408.407-.68.557-.27.151-.533.26-.787.327s-.54.118-.859.151c.29.252.436.648.436 1.19v1.768c0 .1.035.185.105.252.07.067.18.086.33.058a6.303 6.303 0 0 0 3.173-2.325 6.256 6.256 0 0 0 1.227-3.784 6.301 6.301 0 0 0-.863-3.23z"/><path id="csnsv" d="M857.413 590.422a6.408 6.408 0 0 0-2.342-2.342 6.295 6.295 0 0 0-3.231-.863 6.296 6.296 0 0 0-3.23.863 6.408 6.408 0 0 0-2.343 2.342 6.296 6.296 0 0 0-.863 3.23c0 1.403.409 2.664 1.227 3.785a6.304 6.304 0 0 0 3.172 2.325c.151.028.263.008.336-.058a.328.328 0 0 0 .109-.252l-.005-.452a74.751 74.751 0 0 1-.004-.746l-.193.033a2.458 2.458 0 0 1-.465.03 3.543 3.543 0 0 1-.582-.059 1.301 1.301 0 0 1-.562-.251 1.063 1.063 0 0 1-.368-.516l-.084-.192a2.094 2.094 0 0 0-.264-.428 1.011 1.011 0 0 0-.365-.318l-.058-.042a.615.615 0 0 1-.11-.1.46.46 0 0 1-.075-.118c-.017-.04-.003-.071.042-.097a.544.544 0 0 1 .243-.037l.168.025c.111.022.25.09.415.201.164.112.3.257.406.436.129.229.283.403.465.524.182.12.365.18.549.18.184 0 .344-.014.478-.042.134-.028.26-.07.377-.126.05-.374.187-.662.41-.863a5.737 5.737 0 0 1-.859-.151 3.42 3.42 0 0 1-.787-.327 2.256 2.256 0 0 1-.675-.562c-.179-.223-.325-.516-.44-.88a4.185 4.185 0 0 1-.172-1.257c0-.676.221-1.251.662-1.726-.206-.508-.187-1.078.06-1.71.161-.05.401-.012.72.113.318.126.551.234.7.323.148.09.266.165.356.226a5.951 5.951 0 0 1 1.609-.217c.553 0 1.09.072 1.61.217l.318-.2a4.51 4.51 0 0 1 .77-.37c.297-.111.523-.142.68-.092.25.632.273 1.202.066 1.71.442.475.663 1.05.663 1.727 0 .474-.058.895-.172 1.26-.115.367-.263.66-.444.88-.182.221-.408.407-.68.558-.27.15-.533.26-.787.327s-.54.117-.859.15c.29.252.436.649.436 1.19v1.77c0 .1.035.183.105.25.07.067.18.087.33.059a6.303 6.303 0 0 0 3.173-2.326 6.256 6.256 0 0 0 1.227-3.783 6.301 6.301 0 0 0-.863-3.23z"/><path id="csnsw" d="M857.413 613.732a6.408 6.408 0 0 0-2.342-2.342 6.295 6.295 0 0 0-3.231-.864 6.296 6.296 0 0 0-3.23.864 6.408 6.408 0 0 0-2.343 2.342 6.296 6.296 0 0 0-.863 3.23c0 1.403.409 2.664 1.227 3.784a6.304 6.304 0 0 0 3.172 2.326c.151.028.263.008.336-.059a.328.328 0 0 0 .109-.25l-.005-.453a74.751 74.751 0 0 1-.004-.746l-.193.033a2.458 2.458 0 0 1-.465.03 3.543 3.543 0 0 1-.582-.06 1.301 1.301 0 0 1-.562-.25 1.063 1.063 0 0 1-.368-.516l-.084-.193a2.094 2.094 0 0 0-.264-.427 1.011 1.011 0 0 0-.365-.318l-.058-.042a.615.615 0 0 1-.11-.101.46.46 0 0 1-.075-.117c-.017-.04-.003-.072.042-.097a.544.544 0 0 1 .243-.037l.168.025c.111.022.25.089.415.2.164.113.3.258.406.437.129.229.283.403.465.523.182.12.365.18.549.18.184 0 .344-.013.478-.041.134-.028.26-.07.377-.126.05-.375.187-.662.41-.863a5.737 5.737 0 0 1-.859-.151 3.42 3.42 0 0 1-.787-.327 2.256 2.256 0 0 1-.675-.562c-.179-.223-.325-.517-.44-.88a4.185 4.185 0 0 1-.172-1.257c0-.676.221-1.251.662-1.726-.206-.509-.187-1.078.06-1.71.161-.05.401-.012.72.113.318.126.551.234.7.323.148.09.266.165.356.226a5.951 5.951 0 0 1 1.609-.217c.553 0 1.09.072 1.61.217l.318-.2a4.51 4.51 0 0 1 .77-.37c.297-.111.523-.142.68-.092.25.632.273 1.202.066 1.71.442.475.663 1.05.663 1.726 0 .475-.058.896-.172 1.262-.115.366-.263.659-.444.88-.182.22-.408.406-.68.557-.27.15-.533.26-.787.327s-.54.117-.859.15c.29.252.436.649.436 1.19v1.769c0 .1.035.184.105.251.07.067.18.087.33.059a6.303 6.303 0 0 0 3.173-2.326 6.256 6.256 0 0 0 1.227-3.784 6.301 6.301 0 0 0-.863-3.23z"/><path id="csnsx" d="M927.172 550.65l13.607-13.607 1.797 1.797-15.404 15.404-7.189-7.189 1.798-1.797z"/><mask id="csnsd" width="2" height="2" x="-1" y="-1"><path fill="#fff" d="M830 540h109v106H830z"/><use xlink:href="#csnsa"/></mask><filter id="csnsc" width="153" height="153" x="808" y="518" filterUnits="userSpaceOnUse"><feOffset dy="3" in="SourceGraphic" result="FeOffset1299Out"/><feGaussianBlur in="FeOffset1299Out" result="FeGaussianBlur1300Out" stdDeviation="4.8 4.8"/></filter><clipPath id="csnse"><use fill="#fff" xlink:href="#csnsa"/></clipPath><mask id="csnst" width="2" height="2" x="-1" y="-1"><path fill="#fff" d="M910 526h42v42h-42z"/><use xlink:href="#csnsb"/></mask><filter id="csnss" width="74" height="77" x="894" y="510" filterUnits="userSpaceOnUse"><feOffset dy="3" in="SourceGraphic" result="FeOffset1398Out"/><feGaussianBlur in="FeOffset1398Out" result="FeGaussianBlur1399Out" stdDeviation="2.4 2.4"/></filter></defs><g><g transform="translate(-820 -524)"><g><g filter="url(#csnsc)"><use fill="none" stroke-opacity=".28" stroke-width="0" mask="url(&quot;#csnsd&quot;)" xlink:href="#csnsa"/><use fill="#6320ee" fill-opacity=".28" xlink:href="#csnsa"/></g><use fill="#404d6f" xlink:href="#csnsa"/><use fill="#fff" fill-opacity="0" stroke="#fff" stroke-miterlimit="50" stroke-width="8" clip-path="url(&quot;#csnse&quot;)" xlink:href="#csnsa"/></g><g><use fill="#eef1f8" xlink:href="#csnsf"/></g><g><use fill="#eef1f8" xlink:href="#csnsg"/></g><g><use fill="#eef1f8" xlink:href="#csnsh"/></g><g><g><text dominant-baseline="text-before-edge" style="font-kerning:normal" fill="#20fc8f" font-family="'Rajdhani','SegoeUI'" font-size="12" letter-spacing=".14" transform="translate(908 561)"><tspan font-family="Segoe UI" font-style="none" font-weight="400">&lt;/&gt;</tspan></text></g></g><g><g><text dominant-baseline="text-before-edge" style="font-kerning:normal" fill="#eef1f8" font-family="'Rajdhani','SegoeUI'" font-size="12" letter-spacing=".14" transform="translate(908 585)"><tspan font-family="Segoe UI" font-style="none" font-weight="400">&lt;/&gt;</tspan></text></g></g><g><g><text dominant-baseline="text-before-edge" style="font-kerning:normal" fill="#eef1f8" font-family="'Rajdhani','SegoeUI'" font-size="12" letter-spacing=".14" transform="translate(908 607)"><tspan font-family="Segoe UI" font-style="none" font-weight="400">&lt;/&gt;</tspan></text></g></g><g><use fill="#fff" fill-opacity="0" stroke="#20fc8f" stroke-linecap="round" stroke-miterlimit="50" stroke-width="2" xlink:href="#csnsi"/></g><g><use fill="#fff" fill-opacity="0" stroke="#eef1f8" stroke-linecap="round" stroke-miterlimit="50" stroke-width="2" xlink:href="#csnsj"/></g><g><use fill="#fff" fill-opacity="0" stroke="#eef1f8" stroke-linecap="round" stroke-miterlimit="50" stroke-width="2" xlink:href="#csnsk"/></g><g><use fill="#fff" fill-opacity="0" stroke="#20fc8f" stroke-linecap="round" stroke-miterlimit="50" stroke-width="2" xlink:href="#csnsl"/></g><g><use fill="#fff" fill-opacity="0" stroke="#eef1f8" stroke-linecap="round" stroke-miterlimit="50" stroke-width="2" xlink:href="#csnsm"/></g><g><use fill="#fff" fill-opacity="0" stroke="#eef1f8" stroke-linecap="round" stroke-miterlimit="50" stroke-width="2" xlink:href="#csnsn"/></g><g><use fill="#fff" fill-opacity="0" stroke="#20fc8f" stroke-linecap="round" stroke-miterlimit="50" stroke-width="2" xlink:href="#csnso"/></g><g><use fill="#fff" fill-opacity="0" stroke="#eef1f8" stroke-linecap="round" stroke-miterlimit="50" stroke-width="2" xlink:href="#csnsp"/></g><g><use fill="#fff" fill-opacity="0" stroke="#eef1f8" stroke-linecap="round" stroke-miterlimit="50" stroke-width="2" xlink:href="#csnsq"/></g><g><use fill="#fff" fill-opacity="0" stroke="#eef1f8" stroke-miterlimit="50" stroke-width=".2" xlink:href="#csnsr"/></g><g><g filter="url(#csnss)"><use fill="none" stroke-opacity=".16" stroke-width="0" mask="url(&quot;#csnst&quot;)" xlink:href="#csnsb"/><use fill-opacity=".16" xlink:href="#csnsb"/></g><use fill="#fff" xlink:href="#csnsb"/></g><g><g><use fill="#20fc8f" xlink:href="#csnsu"/></g></g><g><g><use fill="#eef1f8" xlink:href="#csnsv"/></g></g><g><g><use fill="#eef1f8" xlink:href="#csnsw"/></g></g><g><use xlink:href="#csnsx"/></g></g></g></svg>