<svg xmlns="http://www.w3.org/2000/svg" xmlns:xlink="http://www.w3.org/1999/xlink" width="93" height="122" viewBox="0 0 93 122"><defs><path id="ijsoa" d="M82.318 879.842c10.794-6.046 24.596-2.458 30.828 8.013l22.568 37.92c6.232 10.472 2.534 23.862-8.26 29.908-10.794 6.045-24.597 2.458-30.829-8.014l-22.567-37.92c-6.232-10.472-2.534-23.861 8.26-29.907z"/><path id="ijsob" d="M105.973 919.486c10.794-6.046 24.597-2.458 30.829 8.013l22.567 37.92c6.232 10.472 2.534 23.862-8.26 29.908-10.794 6.045-24.596 2.457-30.828-8.014l-22.568-37.92c-6.232-10.472-2.534-23.862 8.26-29.907z"/><clipPath id="ijsoc"><use fill="#fff" xlink:href="#ijsoa"/></clipPath><clipPath id="ijsod"><use fill="#fff" xlink:href="#ijsob"/></clipPath></defs><g><g opacity=".62" transform="translate(-70 -877)"><use fill="#fff" fill-opacity="0" stroke="#20fc8f" stroke-miterlimit="50" stroke-width="8" clip-path="url(&quot;#ijsoc&quot;)" xlink:href="#ijsoa"/></g><g opacity=".21" transform="translate(-70 -877)"><use fill="#fff" fill-opacity="0" stroke="#20fc8f" stroke-miterlimit="50" stroke-width="8" clip-path="url(&quot;#ijsod&quot;)" xlink:href="#ijsob"/></g></g></svg>