<svg xmlns="http://www.w3.org/2000/svg" xmlns:xlink="http://www.w3.org/1999/xlink" width="9" height="14" viewBox="0 0 9 14"><defs><path id="k1aja" d="M453.375 328.806h-7.861a.15.15 0 0 1 0-.298h7.861a.15.15 0 0 1 0 .298zm-.566 2.688a.455.455 0 0 1-.258.409l-1.469.702v-3.403h1.727zm-2.551 2.709a3.763 3.763 0 0 0-1.627 0v-.185c0-.117.095-.212.212-.212h1.203c.117 0 .212.095.212.212zm2.551 3.673a3.369 3.369 0 0 1-3.365 3.364 3.369 3.369 0 0 1-3.365-3.364 3.369 3.369 0 0 1 3.365-3.365 3.369 3.369 0 0 1 3.365 3.365zm-6.73-8.674h1.727v.499a.198.198 0 0 0 .397 0v-.499h2.483v3.593l-1.242.593-1.241-.593v-2.302a.198.198 0 0 0-.397 0v2.112l-1.469-.702a.455.455 0 0 1-.258-.41zm7.296-1.09h-7.861a.546.546 0 0 0 0 1.09h.17v2.292c0 .325.189.626.482.766l2.476 1.184a.61.61 0 0 0-.408.574v.296a3.768 3.768 0 0 0-2.55 3.562 3.765 3.765 0 0 0 3.76 3.76 3.765 3.765 0 0 0 3.761-3.76 3.768 3.768 0 0 0-2.55-3.562v-.296a.61.61 0 0 0-.408-.574l2.475-1.184a.853.853 0 0 0 .483-.766v-2.292h.17a.546.546 0 0 0 0-1.09z"/><linearGradient id="k1ajb" x1="449.44" x2="449.44" y1="328.11" y2="341.64" gradientUnits="userSpaceOnUse"><stop offset="0" stop-color="#00efd1"/><stop offset="1" stop-color="#00acea"/></linearGradient></defs><g><g transform="translate(-445 -328)"><use fill="url(#k1ajb)" xlink:href="#k1aja"/></g></g></svg>