<svg xmlns="http://www.w3.org/2000/svg" xmlns:xlink="http://www.w3.org/1999/xlink" width="16" height="14" viewBox="0 0 16 14"><defs><path id="c5hoa" d="M474.3 339.911a.037.037 0 0 1-.038-.037v-.579c.016-.01.031-.022.046-.033h.95c.298 0 .542-.243.542-.543v-.553h1.373l-.66.566a.403.403 0 0 0 0 .613l.66.567H474.3zm-9.43-1.096a.096.096 0 0 1-.097-.096v-1.554c0-.053.043-.096.096-.096h10.388c.053 0 .096.043.096.096v1.554a.096.096 0 0 1-.096.096zm4.174.447h2.084l-1.042.56zm1.328 1.671a.592.592 0 0 1-.572 0l-3.047-1.67h1.348l1.88 1.01a.222.222 0 0 0 .211 0l1.88-1.01h1.347zm-4.508-1.059c0 .02-.017.037-.038.037h-2.873l.66-.566a.404.404 0 0 0 0-.613l-.66-.566h1.373v.553c0 .3.244.543.543.543h.995zm-.448-9.345c0-.056.043-.102.1-.11a2.464 2.464 0 0 0 1.97-1.51.11.11 0 0 1 .103-.069h4.994a.11.11 0 0 1 .102.069 2.465 2.465 0 0 0 1.969 1.51c.058.008.1.055.1.11l.02 6.093h-9.416zm12.136 9.119l-.71-.61.71-.609a.4.4 0 0 0 .116-.447.4.4 0 0 0-.379-.263h-1.49v-.554c0-.3-.243-.543-.542-.543h-.037l-.02-6.094a.562.562 0 0 0-.487-.552 2.017 2.017 0 0 1-1.613-1.234.555.555 0 0 0-.517-.349h-4.994a.555.555 0 0 0-.517.349 2.016 2.016 0 0 1-1.614 1.235.563.563 0 0 0-.489.548l-.058 6.097h-.042c-.3 0-.543.244-.543.543v.554h-1.489a.4.4 0 0 0-.379.263.4.4 0 0 0 .116.447l.71.61-.71.609a.4.4 0 0 0-.116.447.4.4 0 0 0 .38.263h2.988a.485.485 0 0 0 .485-.484v-.345l3.274 1.796a1.041 1.041 0 0 0 1.002 0l3.228-1.77v.32c0 .266.218.483.485.483h2.99a.4.4 0 0 0 .378-.263.4.4 0 0 0-.116-.447z"/><linearGradient id="c5hob" x1="470.06" x2="470.06" y1="328.39" y2="341.45" gradientUnits="userSpaceOnUse"><stop offset="0" stop-color="#00efd1"/><stop offset="1" stop-color="#00acea"/></linearGradient></defs><g><g transform="translate(-462 -328)"><use fill="url(#c5hob)" xlink:href="#c5hoa"/></g></g></svg>