<svg xmlns="http://www.w3.org/2000/svg" xmlns:xlink="http://www.w3.org/1999/xlink" width="18" height="20" viewBox="0 0 18 20"><defs><path id="iiuma" d="M773.266 107.089h-3.306v-5.627c0-.12.012-.236.036-.349.142-.665.683-1.195 1.37-1.356.013-.003.025-.009.038-.011.09-.02.183-.026.277-.031.03-.002.06-.009.09-.01.825.014 1.495.662 1.495 1.453zm-4.041 10.597l-6.245-3.986-6.245 3.986v-16.544c0-.793.674-1.439 1.503-1.439h11.76s-.617.778-.721 1.27v.001a2.317 2.317 0 0 0-.052.488v6.33zM774 101.158c0-1.169-.986-2.129-2.204-2.154V99h-13.558c-1.234 0-2.238.96-2.238 2.142V119l6.98-4.455 6.98 4.455v-11.208H774z"/></defs><g><g transform="translate(-756 -99)"><use fill="#fff" xlink:href="#iiuma"/></g></g></svg>