<svg xmlns="http://www.w3.org/2000/svg" xmlns:xlink="http://www.w3.org/1999/xlink" width="20" height="20" viewBox="0 0 20 20"><defs><path id="2j44a" d="M165.237 115.121l7.12-7.12-7.234-7.236a1 1 0 0 1 0-1.414l.229-.229a1 1 0 0 1 1.414 0l7.235 7.235 7.12-7.12a1.162 1.162 0 1 1 1.643 1.644l-7.12 7.12 7.235 7.234a1 1 0 0 1 0 1.414l-.23.23a1 1 0 0 1-1.413 0L174 109.643l-7.12 7.12a1.162 1.162 0 0 1-1.644-1.643z"/></defs><g><g transform="translate(-164 -98)"><use fill="#eef1f8" xlink:href="#2j44a"/></g></g></svg>