<svg xmlns="http://www.w3.org/2000/svg" xmlns:xlink="http://www.w3.org/1999/xlink" width="23" height="21" viewBox="0 0 23 21"><defs><path id="lk7pa" d="M81.872 619.217c0 .951-.777 1.726-1.732 1.726h-9.98l-4.664 3.233v-3.233H64.22a1.731 1.731 0 0 1-1.732-1.726v-9.707a1.73 1.73 0 0 1 1.732-1.726h15.92a1.73 1.73 0 0 1 1.732 1.726zm-1.732-12.715H64.22a3.017 3.017 0 0 0-3.019 3.008v9.707a3.017 3.017 0 0 0 3.008 3.008v4.405l6.354-4.405h9.577a3.017 3.017 0 0 0 3.019-3.008v-9.707a3.017 3.017 0 0 0-3.02-3.008z"/><path id="lk7pb" d="M66.893 611.02h10.574v1.332H66.893z"/><path id="lk7pc" d="M66.893 613.746h10.574v1.333H66.893z"/><path id="lk7pd" d="M66.893 616.474h10.574v1.333H66.893z"/></defs><g><g opacity=".85" transform="translate(-61 -606)"><g opacity=".85"><use fill="#f8f7fc" xlink:href="#lk7pa"/></g><g opacity=".85"><use fill="#f8f7fc" xlink:href="#lk7pb"/></g><g opacity=".85"><use fill="#f8f7fc" xlink:href="#lk7pc"/></g><g opacity=".85"><use fill="#f8f7fc" xlink:href="#lk7pd"/></g></g></g></svg>