<svg xmlns="http://www.w3.org/2000/svg" xmlns:xlink="http://www.w3.org/1999/xlink" width="40" height="31" viewBox="0 0 40 31"><defs><path id="1cw3a" d="M86.32 529.241a.951.951 0 0 0-.95-.953H60.82a.951.951 0 0 0-.949.953v2.288c0 .526.425.953.95.953h24.55c.524 0 .949-.427.949-.953zm2.316-12.44a.954.954 0 0 1-.025.282l-2.088 8.387a.95.95 0 0 1-.916.722l-12.528.063H60.546a.95.95 0 0 1-.92-.722l-2.089-8.419a.956.956 0 0 1-.025-.29 2.004 2.004 0 0 1 .598-3.91 2 2 0 0 1 1.993 2c0 .622-.283 1.178-.727 1.545l2.614 2.645a3.56 3.56 0 0 0 2.515 1.052 3.559 3.559 0 0 0 2.833-1.415l4.296-5.716a1.998 1.998 0 0 1-.584-1.414 2 2 0 0 1 1.993-2.002 2 2 0 0 1 1.44 3.382c0 .002.002.003.003.005l4.265 5.731a3.555 3.555 0 0 0 2.839 1.43c.947 0 1.837-.371 2.506-1.043l2.63-2.642a2 2 0 0 1 1.249-3.56 2.002 2.002 0 1 1 .661 3.887z"/><mask id="1cw3c" width="2" height="2" x="-1" y="-1"><path fill="#fff" d="M56 509h34v24H56z"/><use xlink:href="#1cw3a"/></mask><filter id="1cw3b" width="66" height="56" x="40" y="493" filterUnits="userSpaceOnUse"><feOffset in="SourceGraphic" result="FeOffset1197Out"/><feGaussianBlur in="FeOffset1197Out" result="FeGaussianBlur1198Out" stdDeviation="2.4 2.4"/></filter></defs><g><g opacity=".85" transform="translate(-53 -506)"><g filter="url(#1cw3b)"><use fill="none" stroke-opacity=".05" stroke-width="0" mask="url(&quot;#1cw3c&quot;)" xlink:href="#1cw3a"/><use fill-opacity=".05" xlink:href="#1cw3a"/></g><use fill="#f8f7fc" xlink:href="#1cw3a"/></g></g></svg>