<svg xmlns="http://www.w3.org/2000/svg" xmlns:xlink="http://www.w3.org/1999/xlink" width="17" height="17" viewBox="0 0 17 17"><defs><path id="xzgya" d="M692.786 299.255v.946c0 .094 0 .236-.043.378l-1.284 3.31c-.128.378-.385.567-.77.567h-3.85a.808.808 0 0 1-.6-.284.984.984 0 0 1-.256-.662v-4.728c0-.236.085-.473.256-.662l2.824-3.12.47.52a.642.642 0 0 1 .172.473v.141l-.428 2.175h2.696c.214 0 .428.095.599.284.17.19.214.426.214.662zm-9.456 5.2v-5.673h1.711v5.674z"/><path id="xzgyb" d="M688.996 306.389c-.12-.05-.229-.025-.328.075-.163.15-.332.265-.506.346-.113.063-.17.153-.17.272v2.005c0 .412-.146.765-.44 1.059-.293.293-.646.44-1.058.44h-7.796c-.412 0-.765-.147-1.059-.44a1.443 1.443 0 0 1-.44-1.059v-7.795c0-.413.147-.765.44-1.06.294-.293.647-.44 1.06-.44h1.049a.433.433 0 0 0 .15-.037c.35-.212.765-.4 1.246-.562.162-.031.243-.131.243-.3a.288.288 0 0 0-.089-.21.288.288 0 0 0-.21-.09h-2.39a2.6 2.6 0 0 0-1.906.792 2.599 2.599 0 0 0-.792 1.907v7.795a2.6 2.6 0 0 0 .792 1.907 2.6 2.6 0 0 0 1.906.792h7.796a2.6 2.6 0 0 0 1.907-.792 2.599 2.599 0 0 0 .791-1.907v-2.427c0-.125-.065-.215-.196-.271z"/></defs><g><g transform="translate(-676 -295)"><use fill="#eef1f8" xlink:href="#xzgya"/></g><g transform="translate(-676 -295)"><use fill="#eef1f8" xlink:href="#xzgyb"/></g></g></svg>