<svg xmlns="http://www.w3.org/2000/svg" xmlns:xlink="http://www.w3.org/1999/xlink" width="24" height="25" viewBox="0 0 24 25"><defs><path id="kjgya" d="M38.797 952.3l5.405 5.408c.352.352.823.549 1.325.549s.974-.197 1.326-.55l9.319-9.323c.28-.28.424-.663.399-1.056l-.182-2.715a4.666 4.666 0 0 1-.771.067c-1.061 0-2.009-.372-2.713-1.077a.622.622 0 1 1 .88-.88c.539.538 1.31.787 2.175.699.119-.01.233-.031.347-.052l-.187-2.776a.228.228 0 0 0-.212-.213l-6.736-.445c-.031 0-.062-.005-.093-.005-.363 0-.715.145-.968.399l-9.314 9.318a1.865 1.865 0 0 0-.55 1.326c0 .502.198.974.55 1.326zm-.875-3.527l9.314-9.324a2.597 2.597 0 0 1 2.014-.761l6.736.445a1.47 1.47 0 0 1 1.366 1.368l.16 2.393c.343-.197.669-.446.964-.741.72-.72 1.165-1.616 1.258-2.528.088-.865-.16-1.637-.699-2.175-1.144-1.145-3.251-.891-4.706.56a.622.622 0 1 1-.88-.881c1.946-1.933 4.846-2.181 6.471-.555.808.808 1.18 1.932 1.057 3.18-.12 1.197-.694 2.363-1.616 3.285a5.781 5.781 0 0 1-1.755 1.207l.197 2.999a2.606 2.606 0 0 1-.761 2.02l-9.32 9.323c-.59.59-1.372.912-2.205.912a3.114 3.114 0 0 1-2.206-.912l-5.4-5.402a3.095 3.095 0 0 1-.911-2.207c.005-.839.331-1.621.922-2.206z"/><linearGradient id="kjgyb" x1="49" x2="49" y1="935.5" y2="959.5" gradientUnits="userSpaceOnUse"><stop offset="0" stop-color="#006df0"/><stop offset="1" stop-color="#00e7f0"/></linearGradient></defs><g><g transform="translate(-37 -935)"><use fill="url(#kjgyb)" xlink:href="#kjgya"/></g></g></svg>