<svg xmlns="http://www.w3.org/2000/svg" xmlns:xlink="http://www.w3.org/1999/xlink" width="16" height="16" viewBox="0 0 16 16"><defs><path id="10n7a" d="M344.897 388.408c-1.45 0-2.116.859-2.116 1.439 0 .419.354.612.644.612.58 0 .344-.827 1.44-.827.537 0 .967.237.967.73 0 .58-.602.914-.956 1.215-.312.268-.72.709-.72 1.633 0 .558.15.72.59.72.527 0 .635-.237.635-.441 0-.559.01-.881.601-1.343.29-.226 1.203-.956 1.203-1.966s-.913-1.772-2.288-1.772z"/><path id="10n7b" d="M345 398.75h-6.75V392c0-3.73 3.018-6.75 6.75-6.75 3.73 0 6.75 3.019 6.75 6.75 0 3.73-3.02 6.75-6.75 6.75zm0-14.75c-4.422 0-8 3.578-8 8v7.375c0 .345.28.625.625.625H345c4.42 0 8-3.578 8-8 0-4.421-3.579-8-8-8z"/></defs><g><g transform="translate(-337 -384)"><use fill="#eef1f8" xlink:href="#10n7a"/></g><g transform="translate(-337 -384)"><use fill="#eef1f8" xlink:href="#10n7b"/></g></g></svg>