<svg xmlns="http://www.w3.org/2000/svg" xmlns:xlink="http://www.w3.org/1999/xlink" width="20" height="20" viewBox="0 0 20 20"><defs><path id="8ugsa" d="M751 727.253c-4.551 0-8.253-3.702-8.253-8.253 0-4.55 3.702-8.253 8.253-8.253 4.55 0 8.253 3.702 8.253 8.253 0 4.55-3.702 8.253-8.253 8.253zm6.61-14.864a9.288 9.288 0 0 0-6.61-2.738 9.288 9.288 0 0 0-6.61 2.738A9.288 9.288 0 0 0 741.65 719c0 2.497.972 4.845 2.738 6.61a9.288 9.288 0 0 0 6.61 2.739 9.288 9.288 0 0 0 6.612-2.738 9.288 9.288 0 0 0 2.738-6.611 9.288 9.288 0 0 0-2.738-6.61z"/><path id="8ugsb" d="M755.466 716a.548.548 0 0 0-.774 0l-4.838 4.838-2.546-2.547a.548.548 0 0 0-.775.775l2.934 2.934a.546.546 0 0 0 .775 0l5.224-5.225a.548.548 0 0 0 0-.775z"/></defs><g><g transform="translate(-741 -709)"><g><g><g><use fill="#8b8c91" xlink:href="#8ugsa"/></g></g></g><g><g><g><use fill="#8b8c91" xlink:href="#8ugsb"/></g></g></g></g></g></svg>