<svg xmlns="http://www.w3.org/2000/svg" xmlns:xlink="http://www.w3.org/1999/xlink" width="20" height="20" viewBox="0 0 20 20"><defs><path id="jwlua" d="M751 210.253c-4.552 0-8.254-3.703-8.254-8.254 0-4.55 3.702-8.253 8.253-8.253s8.254 3.702 8.254 8.253-3.703 8.254-8.254 8.254zm6.61-14.864a9.288 9.288 0 0 0-6.61-2.739 9.288 9.288 0 0 0-6.611 2.739 9.288 9.288 0 0 0-2.739 6.61c0 2.497.973 4.845 2.739 6.611a9.288 9.288 0 0 0 6.61 2.738 9.288 9.288 0 0 0 6.611-2.738 9.288 9.288 0 0 0 2.738-6.61 9.288 9.288 0 0 0-2.738-6.611z"/><path id="jwlub" d="M755.466 199a.548.548 0 0 0-.775 0l-4.837 4.837-2.547-2.546a.548.548 0 0 0-.774.774l2.933 2.934a.546.546 0 0 0 .775 0l5.225-5.225a.548.548 0 0 0 0-.774z"/></defs><g><g transform="translate(-741 -192)"><g><g><g><use fill="#06e278" xlink:href="#jwlua"/></g></g></g><g><g><g><use fill="#06e278" xlink:href="#jwlub"/></g></g></g></g></g></svg>