<svg xmlns="http://www.w3.org/2000/svg" xmlns:xlink="http://www.w3.org/1999/xlink" width="22" height="26" viewBox="0 0 22 26"><defs><path id="szj2a" d="M78.607 711.83v-6.95a2.175 2.175 0 0 1 1.644-2.105l.045-.014c.104-.023.214-.032.323-.038.036-.003.07-.01.106-.011a1.79 1.79 0 0 1 1.747 1.793v7.326zm-.859 13.09l-7.3-4.924-7.3 4.923v-20.434c0-.98.787-1.776 1.756-1.776h13.749c-.422.417-.723.96-.844 1.568v.001a3.014 3.014 0 0 0-.06.602zm5.583-20.415c0-1.444-1.153-2.63-2.577-2.66v-.005h-15.85c-1.442 0-2.616 1.186-2.616 2.645v22.057l8.16-5.502 8.16 5.502v-13.843h4.723z"/></defs><g><g opacity=".85" transform="translate(-62 -701)"><use fill="#f8f7fc" xlink:href="#szj2a"/></g></g></svg>