<svg xmlns="http://www.w3.org/2000/svg" xmlns:xlink="http://www.w3.org/1999/xlink" width="29" height="15" viewBox="0 0 29 15"><defs><path id="rwmka" d="M69.893 437.074c-.313-.167-.46-.647-.293-.96l6.448-12.13c.167-.313.648-.46.961-.293.314.167.46.647.294.96l-6.449 12.13c-.167.313-.647.46-.96.293z"/><path id="rwmkb" d="M59.705 429.862c.251-.252.753-.252 1.005 0l5.694 5.694c.25.25.25.753 0 1.004-.252.252-.754.252-1.005 0l-5.694-5.694c-.251-.25-.251-.753 0-1.004z"/><path id="rwmkc" d="M59.705 430.876c-.252-.25-.252-.753 0-1.004l5.693-5.694c.252-.251.754-.251 1.005 0 .251.25.251.753 0 1.005l-5.694 5.693c-.25.252-.753.252-1.004 0z"/><path id="rwmkd" d="M87.446 429.862c.251.25.251.753 0 1.004l-5.694 5.694c-.25.252-.753.252-1.004 0-.252-.25-.252-.753 0-1.004l5.693-5.694c.252-.252.754-.252 1.005 0z"/><path id="rwmke" d="M87.447 430.876c-.252.252-.754.252-1.005 0l-5.694-5.693c-.251-.252-.251-.754 0-1.005.251-.251.753-.251 1.005 0l5.694 5.694c.25.25.25.753 0 1.004z"/></defs><g><g opacity=".85" transform="translate(-59 -423)"><use fill="#f8f7fc" xlink:href="#rwmka"/></g><g opacity=".85" transform="translate(-59 -423)"><use fill="#f8f7fc" xlink:href="#rwmkb"/></g><g opacity=".85" transform="translate(-59 -423)"><use fill="#f8f7fc" xlink:href="#rwmkc"/></g><g opacity=".85" transform="translate(-59 -423)"><use fill="#f8f7fc" xlink:href="#rwmkd"/></g><g opacity=".85" transform="translate(-59 -423)"><use fill="#f8f7fc" xlink:href="#rwmke"/></g></g></svg>