<svg xmlns="http://www.w3.org/2000/svg" xmlns:xlink="http://www.w3.org/1999/xlink" width="30" height="30" viewBox="0 0 30 30"><defs><path id="l5bda" d="M75.66 347.108zm0-3.517c0-.978-.205-1.63-.48-2.11 2.608-.703 4.46-2.247 5.284-4.46.875-2.333.48-5.112-.978-7.033.257-1.15.257-2.985-.36-3.843a1.34 1.34 0 0 0-1.132-.583h-.018c-1.33.072-2.377.742-3.5 1.424a11.85 11.85 0 0 0-6.192 0c-1.181-.713-2.218-1.354-3.585-1.424-.429 0-.806.206-1.08.583-.618.858-.618 2.694-.36 3.843-1.46 1.921-1.854 4.717-.979 7.033.823 2.213 2.676 3.757 5.284 4.46-.213.372-.381.853-.448 1.503-.526.182-.983.24-1.408.116-.448-.132-.797-.431-1.1-.942-.682-1.144-1.842-2.078-3.163-1.957l.15 1.709c.612-.056 1.221.591 1.537 1.125.522.878 1.225 1.455 2.09 1.71.642.19 1.23.185 1.861.05v2.313c-4.992-1.75-8.634-6.519-8.634-12.111 0-7.102 5.821-12.98 12.923-12.98s12.923 5.878 12.923 12.98c0 5.592-3.643 10.361-8.635 12.11zm-1.715 4.014c-.823.172-1.698.258-2.573.258s-1.75-.086-2.573-.258v-4.014c0-.96.257-1.304.6-1.767.175-.2.28-.379 1.064-1.56l-1.321-.207c-3.397-.497-4.735-2.264-5.267-3.636-.686-1.836-.325-4.135.91-5.592.188-.224.343-.601.206-.996-.258-.789-.223-2.04-.052-2.521.91.13 1.845.781 2.625 1.252.36.21.548.154.72.172.627-.13 1.605-.446 3.105-.446.926 0 1.904.137 2.865.411.172-.004.448.142.926-.137.816-.497 1.719-1.126 2.625-1.252.171.48.206 1.732-.052 2.521-.137.395.017.772.206.996 1.235 1.458 1.596 3.756.91 5.592-.532 1.372-1.87 3.139-5.267 3.636l-1.32.206c.809 1.222.894 1.369 1.063 1.561.343.463.6.807.6 1.767zm-2.573-27.304c-8.045 0-14.638 6.65-14.638 14.696 0 7.999 6.533 14.581 14.638 14.581 8.095 0 14.638-6.573 14.638-14.581 0-8.045-6.593-14.696-14.638-14.696z"/></defs><g><g opacity=".85" transform="translate(-56 -320)"><use fill="#f8f7fc" xlink:href="#l5bda"/></g></g></svg>