<svg xmlns="http://www.w3.org/2000/svg" xmlns:xlink="http://www.w3.org/1999/xlink" width="23" height="21" viewBox="0 0 23 21"><defs><path id="cgvla" d="M81.872 619.217c0 .951-.777 1.726-1.732 1.726h-9.98l-4.664 3.233v-3.233H64.22a1.731 1.731 0 0 1-1.732-1.726v-9.707a1.73 1.73 0 0 1 1.732-1.726h15.92a1.73 1.73 0 0 1 1.732 1.726zm-1.732-12.715H64.22a3.017 3.017 0 0 0-3.019 3.008v9.707a3.017 3.017 0 0 0 3.008 3.008v4.405l6.354-4.405h9.577a3.017 3.017 0 0 0 3.019-3.008v-9.707a3.017 3.017 0 0 0-3.02-3.008z"/></defs><g><g opacity=".85" transform="translate(-61 -606)"><use fill="#f8f7fc" xlink:href="#cgvla"/></g></g></svg>