<svg xmlns="http://www.w3.org/2000/svg" xmlns:xlink="http://www.w3.org/1999/xlink" width="71" height="43" viewBox="0 0 71 43"><defs><path id="8fbta" d="M69.893 437.074c-.313-.167-.46-.647-.293-.96l6.448-12.13c.167-.313.648-.46.961-.293.314.167.46.647.294.96l-6.449 12.13c-.167.313-.647.46-.96.293z"/><path id="8fbtb" d="M59.705 429.862c.251-.252.753-.252 1.005 0l5.694 5.694c.25.25.25.753 0 1.004-.252.252-.754.252-1.005 0l-5.694-5.694c-.251-.25-.251-.753 0-1.004z"/><path id="8fbtc" d="M59.705 430.876c-.252-.25-.252-.753 0-1.004l5.693-5.694c.252-.251.754-.251 1.005 0 .251.25.251.753 0 1.005l-5.694 5.693c-.25.252-.753.252-1.004 0z"/><path id="8fbtd" d="M87.446 429.862c.251.25.251.753 0 1.004l-5.694 5.694c-.25.252-.753.252-1.004 0-.252-.25-.252-.753 0-1.004l5.693-5.694c.252-.252.754-.252 1.005 0z"/><path id="8fbte" d="M87.447 430.876c-.252.252-.754.252-1.005 0l-5.694-5.693c-.251-.252-.251-.754 0-1.005.251-.251.753-.251 1.005 0l5.694 5.694c.25.25.25.753 0 1.004z"/></defs><g><g transform="translate(-36 -423)"><g opacity=".85"><g><text dominant-baseline="text-before-edge" style="font-kerning:normal" fill="#f8f7fc" font-family="'Montserrat','Montserrat-Regular'" font-size="10" font-style="none" font-weight="400" letter-spacing="1.4" transform="translate(35 456)"><tspan>Peer&apos;s code</tspan></text></g></g><g opacity=".85"><g opacity=".85"><use fill="#f8f7fc" xlink:href="#8fbta"/></g><g opacity=".85"><g opacity=".85"><use fill="#f8f7fc" xlink:href="#8fbtb"/></g><g opacity=".85"><use fill="#f8f7fc" xlink:href="#8fbtc"/></g></g><g opacity=".85"><g opacity=".85"><use fill="#f8f7fc" xlink:href="#8fbtd"/></g><g opacity=".85"><use fill="#f8f7fc" xlink:href="#8fbte"/></g></g></g></g></g></svg>