<svg xmlns="http://www.w3.org/2000/svg" xmlns:xlink="http://www.w3.org/1999/xlink" width="21" height="19" viewBox="0 0 21 19"><defs><path id="retya" d="M680.252 102.961l-4.727-4.727a.758.758 0 0 0-.554-.234.858.858 0 0 0-.308.061c-.32.14-.48.382-.48.727v2.364h-1.97c-.87 0-1.677.045-2.42.135a13.05 13.05 0 0 0-1.963.376 7.992 7.992 0 0 0-1.533.597c-.455.238-.843.49-1.163.757a4.8 4.8 0 0 0-.843.911c-.243.34-.435.675-.58 1.003-.143.329-.258.69-.344 1.084a8.493 8.493 0 0 0-.172 1.108c-.029.344-.043.718-.043 1.12 0 .46.072.96.215 1.502.144.542.302 1.01.474 1.403.172.394.376.803.61 1.225.233.423.396.704.486.843.09.14.176.267.258.382.082.107.19.16.32.16a.669.669 0 0 0 .148-.025c.189-.09.271-.23.246-.418-.369-2.758-.065-4.699.911-5.823.944-1.075 2.742-1.613 5.393-1.613h1.97v2.364c0 .345.16.587.48.726.107.041.21.062.308.062a.732.732 0 0 0 .554-.234l4.727-4.728a.758.758 0 0 0 .234-.554.757.757 0 0 0-.234-.554z"/><path id="retyb" d="M677.076 109.819c-.157-.066-.3-.033-.431.098a2.595 2.595 0 0 1-.665.456c-.148.082-.222.2-.222.357v2.634c0 .542-.192 1.005-.578 1.391-.386.386-.85.58-1.391.58h-10.244a1.897 1.897 0 0 1-1.39-.58 1.897 1.897 0 0 1-.58-1.39V103.12c0-.541.193-1.005.58-1.39.385-.387.849-.58 1.39-.58h1.38a.57.57 0 0 0 .196-.049 8.22 8.22 0 0 1 1.638-.738c.213-.041.32-.173.32-.394a.379.379 0 0 0-.117-.277.379.379 0 0 0-.277-.117h-3.14c-.976 0-1.811.347-2.505 1.04a3.415 3.415 0 0 0-1.04 2.506v10.242c0 .977.347 1.812 1.04 2.506a3.415 3.415 0 0 0 2.506 1.04h10.243c.976 0 1.812-.347 2.505-1.04a3.415 3.415 0 0 0 1.04-2.506v-3.188c0-.164-.086-.283-.258-.357z"/></defs><g><g transform="translate(-660 -98)"><use fill="#f8f7fc" xlink:href="#retya"/></g><g transform="translate(-660 -98)"><use fill="#f8f7fc" xlink:href="#retyb"/></g></g></svg>