<svg xmlns="http://www.w3.org/2000/svg" xmlns:xlink="http://www.w3.org/1999/xlink" width="194" height="76" viewBox="0 0 194 76"><defs><path id="xirya" d="M1633.67 7244.998h104.142l43.188 51.229h-189.617z"/><path id="xiryb" d="M1671.457 7239.111a3.606 3.606 0 1 1 7.212 0 3.606 3.606 0 0 1-7.212 0z"/><path id="xiryc" d="M1675.095 7257.28c-4.131 0-8.313-1.184-8.313-3.448 0-1.59 2.059-2.646 4.714-3.135.513.516 1 .971 1.426 1.35-2.892.324-4.59 1.24-4.59 1.784 0 .67 2.567 1.9 6.763 1.9s6.764-1.23 6.764-1.9c0-.556-1.77-1.494-4.768-1.8a33 33 0 0 0 1.438-1.365c2.734.477 4.879 1.544 4.879 3.166 0 2.264-4.182 3.449-8.313 3.449zm-.144-24.425l.046-.001a.96.96 0 0 0 .047.001c3.774.06 6.845 3.179 6.845 6.954 0 4.615-4.932 9.289-6.892 10.963a28.714 28.714 0 0 1-.43-.376c-.004-.002-.006-.004-.008-.007-2.17-1.927-6.453-6.278-6.453-10.58 0-3.775 3.07-6.894 6.845-6.954zm.046-10.255c-12.37 0-22.398 10.028-22.398 22.398s10.028 22.4 22.398 22.4 22.4-10.03 22.4-22.4-10.03-22.398-22.4-22.398z"/></defs><g><g opacity=".38" transform="translate(-1589 -7222)"><use fill="#fff" fill-opacity="0" stroke="#707070" stroke-miterlimit="50" stroke-width="2" xlink:href="#xirya"/></g><g transform="translate(-1589 -7222)"><g><g><g><use fill="#eef1f8" xlink:href="#xiryb"/></g><g><use fill="#eef1f8" xlink:href="#xiryc"/></g></g></g></g></g></svg>